<svg width="29" height="37" viewBox="0 0 29 37" fill="none" xmlns="http://www.w3.org/2000/svg">
<path d="M1.74493 36.2182C2.00862 36.3825 2.2936 36.5098 2.5919 36.5966C3.30563 36.8172 4.07277 36.7916 4.77022 36.524C5.46767 36.2563 6.055 35.7622 6.43796 35.1208L10.0777 26.3121C10.2674 25.8531 10.7933 25.6349 11.2522 25.8248L19.3127 29.1602C20.1378 29.6805 21.0862 29.9726 22.061 30.0066C23.0358 30.0406 24.0023 29.8154 24.8616 29.3539C25.7299 28.9051 26.4615 28.231 26.9797 27.4023C27.4979 26.5736 27.7836 25.6207 27.8069 24.6436L28.1285 3.97905C28.1336 3.26025 27.9047 2.55928 27.4764 1.98201C27.0481 1.40473 26.4436 0.982483 25.7542 0.779021C25.0647 0.575559 24.3278 0.601933 23.6547 0.85415C22.9816 1.10637 22.4088 1.57075 22.0228 2.17716L17.6807 13.0344C17.4978 13.4918 16.9809 13.7167 16.5216 13.5389L9.00409 10.6287C8.18429 10.1147 7.24321 9.8265 6.27618 9.7932C5.30915 9.7599 4.35047 9.98273 3.49726 10.4391C2.64404 10.8955 1.92655 11.5692 1.41746 12.3921C0.908378 13.2149 0.625745 14.1577 0.59821 15.1249L0.234904 33.2328C0.201163 33.8193 0.323054 34.4044 0.588232 34.9287C0.85341 35.4529 1.25245 35.8978 1.74493 36.2182Z" fill="url(#paint0_linear_1628_24015)"/>
<defs>
<linearGradient id="paint0_linear_1628_24015" x1="26.1055" y1="0.855263" x2="3.36108" y2="37.2288" gradientUnits="userSpaceOnUse">
<stop stop-color="#9747FF"/>
<stop offset="1" stop-color="#684DFF"/>
</linearGradient>
</defs>
</svg>
